<svg width="30" height="30" xmlns="http://www.w3.org/2000/svg"><g fill="#5E81F4"><circle opacity=".25" cx="14.684" cy="15.168" r="10.22"/><path d="M6.292 13.272A6.292 6.292 0 011.84 2.536a6.292 6.292 0 0110.74 4.448 6.288 6.288 0 01-1.844 4.448 6.236 6.236 0 01-4.444 1.84zm17.016 16.624a6.292 6.292 0 114.444-1.84 6.252 6.252 0 01-4.444 1.84z" opacity=".5"/><path d="M6.46 29.828A6.292 6.292 0 012 19.092c.275-.268.573-.51.892-.724l.308-.196c.216-.128.44-.244.676-.356.12-.052.24-.108.372-.156A5.99 5.99 0 015 17.44l.16-.044a.664.664 0 01.084-.024l1.424-.104c.184 0 .4.036.596.064H8a9.2 9.2 0 006.524-2.8 9.148 9.148 0 002.616-6.588v-.136a1.472 1.472 0 01-.024-.232v-.192l-.052-.184c0-.112-.028-.232-.032-.348l.096-1.32v-.056c0-.032.06-.208.06-.208.06-.271.138-.538.232-.8.044-.12.1-.24.156-.36a6 6 0 01.36-.688v-.036c.056-.092.108-.184.172-.272a6 6 0 01.716-.884 6.307 6.307 0 018.928 8.912c-.273.266-.57.505-.888.716-.096.068-.18.116-.264.168l-.048.028a7.923 7.923 0 01-.672.356c-.128.056-.244.112-.364.156a6.45 6.45 0 01-.772.228 1.6 1.6 0 00-.164.044l-.1.028-1.396.096c-.176 0-.364-.032-.56-.056h-.76a9.28 9.28 0 00-9.144 9.356v.14c.01.07.017.141.02.212 0 .076 0 .148.02.22.02.072 0 .136.024.208.014.103.022.208.024.312l-.1 1.372a1.072 1.072 0 01-.028.108l-.036.124a5.944 5.944 0 01-.228.8c-.044.12-.104.244-.16.368a7.36 7.36 0 01-.34.676A5.94 5.94 0 0110.9 28a6.252 6.252 0 01-4.44 1.84v-.012z"/></g></svg>