<?xml version="1.0" encoding="UTF-8"?>
<svg width="30px" height="30px" viewBox="0 0 30 30" version="1.1" xmlns="http://www.w3.org/2000/svg" xmlns:xlink="http://www.w3.org/1999/xlink">
    <!-- Generator: Sketch 64 (93537) - https://sketch.com -->
    <title>Logo</title>
    <desc>Created with Sketch.</desc>
    <g id="Symbols" stroke="none" stroke-width="1" fill="none" fill-rule="evenodd">
        <g id="Navigation-Web-/-Icons" transform="translate(-28.000000, -26.000000)" fill="#5E81F4" fill-rule="nonzero">
            <g id="Logo" transform="translate(28.000000, 26.000000)">
                <circle id="Oval" opacity="0.25" cx="14.684" cy="15.168" r="10.22"></circle>
                <path d="M6.292,13.2720353 C3.74884458,13.2711005 1.4562914,11.7393384 0.482133525,9.39015625 C-0.492024345,7.04097411 0.0437850625,4.3363478 1.84,2.536 C4.29692336,0.0803086062 8.27907664,0.0803086062 10.736,2.536 C11.9162767,3.71536771 12.5794258,5.31547928 12.5794258,6.984 C12.5794258,8.65252072 11.9162767,10.2526323 10.736,11.432 C9.56031708,12.6149213 7.95978345,13.2776085 6.292,13.2720353 Z" id="Path" opacity="0.5"></path>
                <path d="M23.308,29.8960165 C20.3056556,29.8970642 17.72083,27.7767436 17.1347961,24.832149 C16.5487623,21.8875543 18.1248063,18.9391365 20.8987799,17.7905966 C23.6727534,16.6420567 26.8717458,17.6134118 28.5387662,20.1104332 C30.2057867,22.6074546 29.8763543,25.9343987 27.752,28.056 C26.5753048,29.2374101 24.9754313,29.899824 23.308,29.8960165 L23.308,29.8960165 Z" id="Path" opacity="0.5"></path>
                <path d="M6.46,29.828 C3.91538857,29.8303362 1.61987434,28.2997604 0.64366447,25.9498525 C-0.332545399,23.5999446 0.202755135,20.8933783 2,19.092 C2.27475132,18.8241032 2.57331631,18.5817702 2.892,18.368 L3.2,18.172 C3.416,18.044 3.64,17.928 3.876,17.816 C3.996,17.764 4.116,17.708 4.248,17.66 C4.4935806,17.5702844 4.74478777,17.4967929 5,17.44 L5.16,17.396 C5.1874428,17.3861647 5.21550351,17.3781474 5.244,17.372 L6.668,17.268 C6.852,17.268 7.068,17.304 7.264,17.332 L7.308,17.332 L7.496,17.332 L7.556,17.332 L7.616,17.332 L8,17.332 C10.4617009,17.3091295 12.8115448,16.3006128 14.524,14.532 C16.2459303,12.7768047 17.1888011,10.4023273 17.14,7.944 L17.14,7.876 L17.14,7.808 C17.1258762,7.73142319 17.117851,7.6538464 17.116,7.576 L17.116,7.384 L17.064,7.2 C17.064,7.088 17.036,6.968 17.032,6.852 L17.128,5.532 L17.128,5.5 L17.128,5.476 C17.128,5.444 17.188,5.268 17.188,5.268 C17.2488051,4.99681533 17.3262857,4.72964101 17.42,4.468 C17.464,4.348 17.52,4.228 17.576,4.108 C17.6810189,3.87113414 17.8012706,3.64131968 17.936,3.42 L17.936,3.384 C17.992,3.292 18.044,3.2 18.108,3.112 C18.3181308,2.79532189 18.5578748,2.49932517 18.824,2.228 C21.2849808,-0.237399123 25.2786009,-0.240980845 27.744,2.22 C30.2093991,4.68098085 30.2129808,8.67460088 27.752,11.14 C27.4787674,11.4056012 27.1814948,11.6452939 26.864,11.856 C26.768,11.924 26.684,11.972 26.6,12.024 L26.552,12.052 C26.32,12.188 26.096,12.308 25.88,12.408 C25.752,12.464 25.636,12.52 25.516,12.564 C25.2635547,12.655665 25.0057402,12.7318071 24.744,12.792 C24.6885931,12.8037535 24.6338493,12.8184409 24.58,12.836 L24.48,12.864 L23.084,12.96 C22.908,12.96 22.72,12.928 22.524,12.904 L22.436,12.904 L22.256,12.904 L22.14,12.904 L22.076,12.904 L21.764,12.904 C16.6622488,12.9785994 12.5776686,17.157879 12.62,22.26 L12.62,22.328 L12.62,22.4 C12.6308168,22.4702135 12.637495,22.5410024 12.64,22.612 C12.64,22.688 12.64,22.76 12.66,22.832 C12.68,22.904 12.66,22.968 12.684,23.04 C12.6979544,23.1434561 12.7059675,23.2476269 12.708,23.352 L12.608,24.724 C12.6005477,24.7604616 12.5912017,24.7965104 12.58,24.832 L12.544,24.956 C12.486776,25.227664 12.4105895,25.4949851 12.316,25.756 C12.272,25.876 12.212,26 12.156,26.124 C12.0543327,26.3550141 11.9408494,26.5806455 11.816,26.8 C11.752,26.912 11.692,27.012 11.624,27.108 C11.4120544,27.4280276 11.1695873,27.7267578 10.9,28 C9.724282,29.1804248 8.12604559,29.842757 6.46,29.8400086 L6.46,29.828 Z" id="Path"></path>
            </g>
        </g>
    </g>
</svg>